<mxfile host="app.diagrams.net" agent="Mozilla/5.0 (Windows NT 10.0; Win64; x64) AppleWebKit/537.36 (KHTML, like Gecko) Chrome/137.0.0.0 Safari/537.36" version="27.1.6">
  <diagram name="Generación de Recibos" id="use-case-diagram">
    <mxGraphModel dx="1111" dy="473" grid="1" gridSize="10" guides="1" tooltips="1" connect="1" arrows="1" fold="1" page="1" pageScale="1" pageWidth="1169" pageHeight="827" math="0" shadow="0">
      <root>
        <mxCell id="0" />
        <mxCell id="1" parent="0" />
        <mxCell id="system-boundary" value="Sistema de Punto de Venta Parroquial" style="swimlane;whiteSpace=wrap;html=1;fillColor=#e1d5e7;strokeColor=#9673a6;fontStyle=1;fontSize=14;" parent="1" vertex="1">
          <mxGeometry x="300" y="150" width="500" height="400" as="geometry" />
        </mxCell>
        <mxCell id="uc-realizar-pago" value="Realizar Pago" style="ellipse;whiteSpace=wrap;html=1;fillColor=#dae8fc;strokeColor=#6c8ebf;" parent="system-boundary" vertex="1">
          <mxGeometry x="50" y="50" width="120" height="60" as="geometry" />
        </mxCell>
        <mxCell id="uc-verificar-pago" value="Verificar Información&#xa;del Pago" style="ellipse;whiteSpace=wrap;html=1;fillColor=#dae8fc;strokeColor=#6c8ebf;" parent="system-boundary" vertex="1">
          <mxGeometry x="280" y="50" width="120" height="60" as="geometry" />
        </mxCell>
        <mxCell id="uc-generar-recibo" value="Generar Recibo&#xa;de Pago" style="ellipse;whiteSpace=wrap;html=1;fillColor=#dae8fc;strokeColor=#6c8ebf;" parent="system-boundary" vertex="1">
          <mxGeometry x="280" y="180" width="120" height="60" as="geometry" />
        </mxCell>
        <mxCell id="uc-entregar-comprobante" value="Entregar&#xa;Comprobante" style="ellipse;whiteSpace=wrap;html=1;fillColor=#dae8fc;strokeColor=#6c8ebf;" parent="system-boundary" vertex="1">
          <mxGeometry x="180" y="310" width="120" height="60" as="geometry" />
        </mxCell>
        <mxCell id="actor-feligres" value="Feligrés" style="shape=umlActor;verticalLabelPosition=bottom;verticalAlign=top;html=1;outlineConnect=0;fillColor=#f8cecc;strokeColor=#b85450;" parent="1" vertex="1">
          <mxGeometry x="150" y="250" width="30" height="60" as="geometry" />
        </mxCell>
        <mxCell id="actor-secretaria" value="Secretaría&#xa;Parroquial" style="shape=umlActor;verticalLabelPosition=bottom;verticalAlign=top;html=1;outlineConnect=0;fillColor=#f8cecc;strokeColor=#b85450;" parent="1" vertex="1">
          <mxGeometry x="900" y="250" width="30" height="60" as="geometry" />
        </mxCell>
        <mxCell id="assoc-1" value="" style="endArrow=none;html=1;rounded=0;entryX=0;entryY=0.5;entryDx=0;entryDy=0;" parent="1" source="actor-feligres" target="uc-realizar-pago" edge="1">
          <mxGeometry width="50" height="50" relative="1" as="geometry">
            <mxPoint x="400" y="400" as="sourcePoint" />
            <mxPoint x="450" y="350" as="targetPoint" />
          </mxGeometry>
        </mxCell>
        <mxCell id="assoc-2" value="" style="endArrow=none;html=1;rounded=0;entryX=0;entryY=1;entryDx=0;entryDy=0;" parent="1" source="actor-feligres" target="uc-entregar-comprobante" edge="1">
          <mxGeometry width="50" height="50" relative="1" as="geometry">
            <mxPoint x="400" y="400" as="sourcePoint" />
            <mxPoint x="450" y="350" as="targetPoint" />
          </mxGeometry>
        </mxCell>
        <mxCell id="assoc-3" value="" style="endArrow=none;html=1;rounded=0;entryX=1;entryY=0.5;entryDx=0;entryDy=0;" parent="1" source="actor-secretaria" target="uc-verificar-pago" edge="1">
          <mxGeometry width="50" height="50" relative="1" as="geometry">
            <mxPoint x="400" y="400" as="sourcePoint" />
            <mxPoint x="450" y="350" as="targetPoint" />
          </mxGeometry>
        </mxCell>
        <mxCell id="assoc-4" value="" style="endArrow=none;html=1;rounded=0;entryX=1;entryY=0.5;entryDx=0;entryDy=0;" parent="1" source="actor-secretaria" target="uc-generar-recibo" edge="1">
          <mxGeometry width="50" height="50" relative="1" as="geometry">
            <mxPoint x="400" y="400" as="sourcePoint" />
            <mxPoint x="450" y="350" as="targetPoint" />
          </mxGeometry>
        </mxCell>
        <mxCell id="assoc-5" value="" style="endArrow=none;html=1;rounded=0;entryX=1;entryY=0;entryDx=0;entryDy=0;" parent="1" source="actor-secretaria" target="uc-entregar-comprobante" edge="1">
          <mxGeometry width="50" height="50" relative="1" as="geometry">
            <mxPoint x="400" y="400" as="sourcePoint" />
            <mxPoint x="450" y="350" as="targetPoint" />
          </mxGeometry>
        </mxCell>
        <mxCell id="include-1" value="&amp;lt;&amp;lt;include&amp;gt;&amp;gt;" style="endArrow=open;endSize=12;dashed=1;html=1;rounded=0;entryX=0.5;entryY=1;entryDx=0;entryDy=0;exitX=0.5;exitY=0;exitDx=0;exitDy=0;" parent="1" source="uc-generar-recibo" target="uc-verificar-pago" edge="1">
          <mxGeometry width="160" relative="1" as="geometry">
            <mxPoint x="400" y="400" as="sourcePoint" />
            <mxPoint x="560" y="350" as="targetPoint" />
          </mxGeometry>
        </mxCell>
        <mxCell id="extend-1" value="&amp;lt;&amp;lt;extend&amp;gt;&amp;gt;" style="endArrow=open;endSize=12;dashed=1;html=1;rounded=0;entryX=1;entryY=1;entryDx=0;entryDy=0;exitX=0;exitY=0;exitDx=0;exitDy=0;" parent="1" source="uc-entregar-comprobante" target="uc-realizar-pago" edge="1">
          <mxGeometry width="160" relative="1" as="geometry">
            <mxPoint x="400" y="400" as="sourcePoint" />
            <mxPoint x="560" y="350" as="targetPoint" />
          </mxGeometry>
        </mxCell>
        <mxCell id="title" value="Diagrama de Casos de Uso - Generación de Recibos" style="text;html=1;align=center;verticalAlign=middle;whiteSpace=wrap;rounded=0;fontSize=16;fontStyle=1;" parent="1" vertex="1">
          <mxGeometry x="400" y="90" width="300" height="30" as="geometry" />
        </mxCell>
        <mxCell id="note-1" value="Tiempo de ejecución: 2 minutos&#xa;Entrada: Registro de pago&#xa;Salida: Comprobante emitido" style="shape=note;whiteSpace=wrap;html=1;backgroundOutline=1;darkOpacity=0.05;fillColor=#fff2cc;strokeColor=#d6b656;size=20;" parent="1" vertex="1">
          <mxGeometry x="50" y="450" width="200" height="80" as="geometry" />
        </mxCell>
      </root>
    </mxGraphModel>
  </diagram>
</mxfile>
